<?xml version="1.0" encoding="utf-8"?>
<!-- Generator: Adobe Illustrator 22.1.0, SVG Export Plug-In . SVG Version: 6.00 Build 0)  -->
<svg version="1.1" id="Capa_1" xmlns="http://www.w3.org/2000/svg" xmlns:xlink="http://www.w3.org/1999/xlink" x="0px" y="0px"
	 viewBox="0 0 512 512" style="enable-background:new 0 0 512 512;" xml:space="preserve">
<style type="text/css">
	.st0{fill:#292955;}
	.st1{fill:#00ABFF;}
	.st2{fill:#FFFFFF;}
	.st3{fill:#B7B6B6;stroke:#B7B6B6;stroke-miterlimit:10;}
</style>
<path class="st0" d="M468.8,256.1c37.8-32,52.5-83.7,37.2-130.8C490.7,78.1,448.5,44.9,399.1,41s-96.2,22.6-118.5,66.8
	c-18.6-2.2-37.3-1.4-55.6,2.4c-14.3,2.9-28.1,8.1-40.7,15.5c-20.8,12.5-31.2,28.4-31.3,44.1v29c0,0.9,0,1.7,0.1,2.6H153l-21.7,13.1
	l-6.2,16.3l-32.9,0.8l-0.3,8.1l-0.5,12.5l-38.5,0.9L52,275.9l-40.8,1L0,283.7l0.9,35.6v28.9l60.3,1.8h0.1l161.5-96.9
	c26.1,3.9,52.7,1.6,77.7-6.7c9.5,10.2,20.7,18.7,33.1,25.1l-0.1,0.1c-6.2,8.5-9.6,18.8-9.5,29.4v151.2c-0.6,9.9,7,18.4,16.9,19.1
	h131.9c9.9-0.6,17.5-9.2,17-19.1V301c0.1-10.6-3.3-20.9-9.5-29.4L468.8,256.1z M325.3,234.8c19.4-12,29.4-27.4,29.8-42.3v-29
	c0.5-15.1-8.7-30-27.9-41c-6.4-3.7-13.2-6.7-20.3-8.9c19.5-32.7,56.4-50.9,94.2-46.4s69.4,30.8,80.8,67.1s0.2,76-28.4,101.1
	l-24-32.5c-5.1-7.4-13.6-11.9-22.6-11.9s-17.5,4.4-22.6,11.9l-35.1,47.7C340.4,246.5,332.4,241.2,325.3,234.8L325.3,234.8z"/>
<path class="st1" d="M222.7,224.1L61.2,321l-60.3-1.8L0,283.7l11.3-6.8l40.8-1l0.9-22.7l38.5-0.9l0.5-12.5l0.3-8.1l32.9-0.8
	l6.2-16.3l21.7-13.1h0.1l9.9-5.9c5.1,5.9,11.1,10.8,17.9,14.6C193.8,217.4,208,222.1,222.7,224.1z"/>
<g>
	<g>
		<polygon class="st0" points="222.7,224.1 222.7,253.1 61.2,350 61.2,350 61.2,321 222.7,224.1 		"/>
		<polygon class="st0" points="61.2,321 61.2,350 0.9,348.2 0.9,319.2 		"/>
	</g>
</g>
<path class="st1" d="M355,163.4v0.6c-0.6,15.2-11.1,30.7-31.2,42.8c-5,3-10.2,5.6-15.6,7.8c-8.2,3.3-16.7,5.9-25.3,7.7
	c-19.8,4.2-40.2,4.8-60.2,1.9v-0.1h-0.1c-14.7-2-28.8-6.7-41.7-14c-6.8-3.8-12.9-8.7-17.9-14.6c-6.3-7-9.8-16.1-10-25.5v-0.2
	c0.1-15.6,10.5-31.6,31.3-44.1c12.6-7.4,26.4-12.6,40.7-15.5c18.3-3.8,37.1-4.6,55.6-2.4c-0.8,1.5-1.5,3-2.1,4.5l28.4,1.1
	c7.1,2.2,13.9,5.2,20.3,8.9C346.3,133.5,355.5,148.3,355,163.4z"/>
<g>
	<g>
		<path class="st0" d="M294.9,144.7c7.1,5.1,6.5,12.9-1.7,18.1l-0.6,0.4c-7.6,4.2-16.5,5.5-25,3.7c-2.8-0.5-5.5-1.4-8-2.8
			c-8.9-5.2-8.5-13.9,0.8-19.5c2.8-1.6,5.9-2.8,9.1-3.5"/>
		<path class="st0" d="M355,164v28.4c-0.3,14.9-10.4,30.3-29.8,42.3c-0.5,0.3-1,0.6-1.5,1c-7.4,4.4-15.2,7.9-23.4,10.7
			c-25,8.3-51.6,10.6-77.7,6.7v-28.9c20,3,40.4,2.3,60.2-1.9c8.6-1.9,17.1-4.4,25.3-7.7c5.4-2.2,10.6-4.9,15.6-7.8
			C343.9,194.6,354.5,179.2,355,164z"/>
		<path class="st0" d="M163,195.5l-9.9,5.9c-0.1-0.9-0.1-1.7-0.1-2.6v-28.8C153.2,179.5,156.7,188.5,163,195.5z"/>
	</g>
</g>
<path class="st2" d="M418.3,255.1c-7.7-5.6-18.3-4.8-25,1.9c-0.7,0.7-1.4,1.5-1.9,2.3c-5.6,7.7-4.8,18.3,1.9,25
	c0.3,0.3,0.5,0.5,0.8,0.8c7.6,6.8,19.2,6.5,26.4-0.8c1.2-1.2,2.1-2.5,3-3.9"/>
<g>
	<path class="st3" d="M349.1,250.5l-15.6,21c-12.4-6.4-23.6-14.9-33.1-25.1c8.1-2.7,16-6.3,23.4-10.7c0.5-0.3,1-0.6,1.5-1
		C332.4,241.2,340.4,246.5,349.1,250.5z"/>
	<path class="st3" d="M512,162.9c0.1,35.9-15.8,70-43.2,93.1c-13.1,11.3-28.6,19.6-45.3,24.4c-9.6,2.8-19.4,4.3-29.4,4.7
		c-0.3-0.2-0.6-0.5-0.8-0.8c-6.7-6.7-7.6-17.3-1.9-25c9.1-0.1,18.2-1.6,26.9-4.3c13-4,25-10.8,35.2-19.8
		c33.3-29.4,42.3-77.7,21.7-117c-20.6-39.4-65.3-59.6-108.5-49.1s-73.5,49.2-73.6,93.6c-0.2,0.2-0.3,0.3-0.6,0.3
		c-7.6,4.2-16.5,5.5-25,3.7c-0.1-1.2-0.1-2.6-0.1-3.9c0-17.5,3.8-34.7,11-50.6l2.1-4.5c25.5-50.5,82.4-77,137.4-63.9
		C473.1,57.1,512,106.3,512,162.9z"/>
</g>
<g>
	<g>
		<path class="st1" d="M408.2,348c4.3,0,7.8-3.5,7.8-7.8c0-4.3-3.5-7.8-7.8-7.8c-4.3,0-7.8,3.5-7.8,7.8
			C400.4,344.5,403.9,348,408.2,348z"/>
		<path class="st1" d="M378.7,330.3c3.9,0,7.1-3.2,7.1-7.1c0-3.9-3.2-7.1-7.1-7.1s-7.1,3.2-7.1,7.1
			C371.6,327.1,374.8,330.3,378.7,330.3z"/>
		<path class="st1" d="M437.7,330.3c3.9,0,7.1-3.2,7.1-7.1c0-3.9-3.2-7.1-7.1-7.1c-3.9,0-7.1,3.2-7.1,7.1
			C430.6,327.1,433.8,330.3,437.7,330.3z"/>
		<circle class="st1" cx="408.2" cy="306.2" r="6.4"/>
		<path class="st1" d="M382.9,349.8c-0.1,0-0.1-0.1-0.2-0.1c0,0,0,0-0.1,0c-1.2-0.6-2.5-1-3.9-1c-4.7,0-8.5,3.8-8.5,8.5
			c0,3.3,1.9,6.2,4.7,7.6c2.5,1.3,5.6,1.4,8.3-0.1c4.1-2.4,5.5-7.6,3.1-11.7C385.5,351.6,384.3,350.5,382.9,349.8z"/>
		<path class="st1" d="M375,384.6c-3.7,2.2-5,6.9-2.9,10.7c2.2,3.7,6.9,5,10.7,2.9c3.7-2.2,5-6.9,2.9-10.7
			C383.5,383.8,378.7,382.5,375,384.6z"/>
		
			<ellipse transform="matrix(0.8071 -0.5905 0.5905 0.8071 -178.1143 305.8259)" class="st1" cx="378.9" cy="425.5" rx="7.1" ry="7.1"/>
		<path class="st1" d="M352.4,333.2c-1-0.4-2.1-0.7-3.2-0.7c-4.3,0-7.8,3.5-7.8,7.8c0,3.3,2,6.1,4.9,7.2c2.2,0.9,4.7,0.8,6.9-0.4
			c3.7-2.1,5-6.9,2.8-10.6C355.2,334.9,353.9,333.8,352.4,333.2z"/>
		<path class="st1" d="M345.9,368.2c-3.4,2-4.6,6.3-2.6,9.7c2,3.4,6.3,4.6,9.7,2.6c3.4-2,4.6-6.3,2.6-9.7
			C353.6,367.4,349.2,366.2,345.9,368.2z"/>
		<path class="st1" d="M346.2,402.8c-3.1,1.8-4.1,5.7-2.4,8.8c1.8,3.1,5.7,4.1,8.8,2.4s4.1-5.7,2.4-8.8
			C353.2,402.1,349.3,401.1,346.2,402.8z"/>
		<path class="st1" d="M413.1,366.1c-2.9-1.7-6.4-1.6-9.1-0.1c-3,1.5-5.1,4.7-5.1,8.3c0,3.4,1.8,6.3,4.5,8c2.8,1.8,6.6,2.1,9.7,0.2
			c2.9-1.7,4.6-4.7,4.6-7.9C417.9,371.2,416.2,367.9,413.1,366.1z"/>
		<path class="st1" d="M442.2,349.7c-2.9-1.7-6.4-1.4-9,0.3c-2.4,1.5-4,4.2-4,7.2c0,4.7,3.8,8.5,8.5,8.5c1.7,0,3.2-0.5,4.6-1.3
			c0.1,0,0.1-0.1,0.2-0.1c0,0,0,0,0.1,0c1.1-0.7,2.1-1.7,2.8-2.9C447.7,357.3,446.3,352.1,442.2,349.7z"/>
		<path class="st1" d="M471.3,333.4c-2.8-1.6-6.3-1.3-8.7,0.7c-1.9,1.4-3.1,3.7-3.1,6.2c0,4.3,3.5,7.8,7.8,7.8
			c1.8,0,3.4-0.6,4.7-1.6c0.9-0.6,1.6-1.4,2.2-2.4C476.3,340.3,475,335.5,471.3,333.4z"/>
		<path class="st1" d="M412.7,400.8c-4.1-2.4-9.3-1-11.7,3.1c-0.8,1.5-1.2,3-1.1,4.6c0,0.1,0,0.2,0,0.2c0,0,0,0,0,0.1
			c0.1,1.3,0.4,2.6,1.1,3.9c2.4,4.1,7.6,5.5,11.7,3.1c2.9-1.7,4.4-4.8,4.2-7.9C416.8,405.1,415.3,402.4,412.7,400.8z"/>
		<path class="st1" d="M441.8,384.4c-3.7-2.2-8.5-0.9-10.7,2.9c-2.2,3.7-0.9,8.5,2.9,10.7c3.7,2.2,8.5,0.9,10.7-2.9
			C446.8,391.4,445.5,386.6,441.8,384.4z"/>
		<path class="st1" d="M470.9,368c-3.4-2-7.7-0.8-9.7,2.6c-2,3.4-0.8,7.7,2.6,9.7c3.4,2,7.7,0.8,9.7-2.6
			C475.5,374.3,474.3,370,470.9,368z"/>
		<path class="st1" d="M412.3,435.6c-3.7-2.1-8.5-0.9-10.6,2.8c-0.9,1.5-1.2,3.2-1,4.8c0.1,1.1,0.4,2.1,1,3.1
			c2.1,3.7,6.9,5,10.6,2.8c2.8-1.6,4.3-4.8,3.8-7.9C415.8,439,414.5,436.8,412.3,435.6z"/>
		
			<ellipse transform="matrix(0.5905 -0.8071 0.8071 0.5905 -163.8959 527.5494)" class="st1" cx="437.9" cy="425.3" rx="7.1" ry="7.1"/>
		
			<ellipse transform="matrix(0.9994 -3.518134e-02 3.518134e-02 0.9994 -14.0731 16.6955)" class="st1" cx="467.4" cy="408.2" rx="6.4" ry="6.4"/>
	</g>
</g>
</svg>
